<?xml version="1.0" encoding="iso-8859-1"?>
<!-- Generator: Adobe Illustrator 19.0.0, SVG Export Plug-In . SVG Version: 6.00 Build 0)  -->
<svg version="1.1" id="Layer_1" xmlns="http://www.w3.org/2000/svg" xmlns:xlink="http://www.w3.org/1999/xlink" x="0px" y="0px"
	 viewBox="0 0 193.167 193.167" style="enable-background:new 0 0 193.167 193.167;" xml:space="preserve">
<g>
	<g>
		<g>
			<path d="M136.114,103.715c-17.697,0-32.092,14.397-32.092,32.092c0,17.695,14.396,32.092,32.092,32.092
				s32.092-14.397,32.092-32.092C168.206,118.112,153.81,103.715,136.114,103.715z M136.114,160.768
				c-13.762,0-24.961-11.197-24.961-24.961s11.199-24.961,24.961-24.961s24.961,11.197,24.961,24.961
				S149.875,160.768,136.114,160.768z"/>
			<path d="M189.601,132.241h-14.263c-1.971,0-3.566,1.597-3.566,3.566s1.595,3.566,3.566,3.566h14.263
				c1.971,0,3.566-1.597,3.566-3.566S191.572,132.241,189.601,132.241z"/>
			<path d="M135.501,171.465c-1.971,0-3.566,1.597-3.566,3.566v14.263c0,1.969,1.595,3.566,3.566,3.566
				c1.971,0,3.566-1.597,3.566-3.566v-14.263C139.067,173.062,137.472,171.465,135.501,171.465z"/>
			<path d="M167.161,161.813c-1.393-1.393-3.649-1.393-5.042,0c-1.393,1.391-1.393,3.649,0,5.042l10.084,10.086
				c0.696,0.696,1.609,1.045,2.521,1.045s1.825-0.348,2.521-1.045c1.393-1.391,1.393-3.649,0-5.042L167.161,161.813z"/>
			<path d="M172.204,97.628l-10.084,10.086c-1.393,1.393-1.393,3.651,0,5.042c0.696,0.696,1.609,1.045,2.521,1.045
				s1.825-0.348,2.521-1.045l10.084-10.086c1.393-1.393,1.393-3.651,0-5.042C175.853,96.235,173.596,96.235,172.204,97.628z"/>
			<path d="M32.092,64.491c5.641,0,11.188-1.485,16.05-4.295c1.1-0.637,1.779-1.814,1.779-3.087s-0.679-2.45-1.779-3.087
				c-7.699-4.454-12.484-12.738-12.484-21.623s4.785-17.169,12.484-21.623c1.1-0.637,1.779-1.814,1.779-3.087
				c0-1.273-0.679-2.45-1.779-3.087c-4.861-2.81-10.409-4.295-16.05-4.295C14.396,0.306,0,14.704,0,32.399
				S14.396,64.491,32.092,64.491z M32.092,7.438c2.427,0,4.833,0.353,7.139,1.039c-6.717,6.028-10.705,14.725-10.705,23.921
				s3.987,17.894,10.705,23.921c-2.305,0.686-4.712,1.039-7.139,1.039c-13.762,0-24.961-11.197-24.961-24.961
				C7.131,18.633,18.33,7.438,32.092,7.438z"/>
			<path d="M39.656,89.018c-1.393-1.393-3.649-1.393-5.042,0l-2.522,2.522l-2.52-2.52c-1.393-1.393-3.649-1.393-5.042,0
				c-1.393,1.393-1.393,3.649,0,5.042l2.521,2.521l-2.521,2.521c-1.393,1.393-1.393,3.651,0,5.042
				c0.696,0.696,1.609,1.045,2.521,1.045c0.912,0,1.825-0.348,2.521-1.045l2.521-2.521l2.521,2.521
				c0.696,0.696,1.609,1.045,2.521,1.045s1.825-0.348,2.521-1.045c1.393-1.393,1.393-3.649,0-5.042l-2.522-2.522l2.522-2.522
				C41.049,92.668,41.049,90.409,39.656,89.018z"/>
			<path d="M69.84,28.833l-2.521,2.521c-1.393,1.393-1.393,3.651,0,5.042c0.696,0.696,1.609,1.045,2.521,1.045
				c0.912,0,1.825-0.348,2.521-1.045l2.521-2.521l2.521,2.521c0.696,0.696,1.609,1.045,2.521,1.045c0.912,0,1.825-0.348,2.521-1.045
				c1.393-1.393,1.393-3.649,0-5.042l-2.522-2.522l2.522-2.522c1.393-1.393,1.393-3.651,0-5.042c-1.393-1.393-3.649-1.393-5.042,0
				l-2.522,2.522l-2.52-2.52c-1.393-1.393-3.649-1.393-5.042,0s-1.393,3.649,0,5.042L69.84,28.833z"/>
			<path d="M176.786,5.559c-1.393-1.393-3.649-1.393-5.042,0L4.858,172.447c-1.393,1.393-1.393,3.649,0,5.042
				c0.696,0.696,1.609,1.045,2.521,1.045c0.912,0,1.825-0.348,2.521-1.045L176.786,10.602
				C178.179,9.209,178.179,6.952,176.786,5.559z"/>
		</g>
	</g>
</g>
<g>
</g>
<g>
</g>
<g>
</g>
<g>
</g>
<g>
</g>
<g>
</g>
<g>
</g>
<g>
</g>
<g>
</g>
<g>
</g>
<g>
</g>
<g>
</g>
<g>
</g>
<g>
</g>
<g>
</g>
</svg>
